# xmcd CD database file
#
# Track frame offsets:
#	150
#	12392
#	27667
#	44692
#	59287
#	79295
#	98430
#	114725
#	128505
#	143587
#	167212
#	186722
#
# Disc length: 2720 seconds
#
# Revision: 0
# Processed by: cddbd v1.4PL0 Copyright (c) Steve Scherf et al.
# Submitted via: CDex 1.50
#
DISCID=a80a9e0c
DTITLE=Count Basie - Jumpin' At The Woodside
DYEAR=1997
DGENRE=Jazz
TTITLE0=Little Pony
TTITLE1=One O'Clock Jump
TTITLE2=Blues
TTITLE3=Indian Summer
TTITLE4=Who, Me?
TTITLE5=Jumpin' At The Woodside
TTITLE6=Spring Is Here
TTITLE7=Teddy The Toad
TTITLE8=Pensive Miss
TTITLE9=Corner Pocket
TTITLE10=Sweety Cake
TTITLE11=Cute
EXTD=YEAR: 1997
EXTT0=
EXTT1=
EXTT2=
EXTT3=
EXTT4=
EXTT5=
EXTT6=
EXTT7=
EXTT8=
EXTT9=
EXTT10=
EXTT11=
PLAYORDER=
